{
  "asset": {
    "version": "2.0"
  },
  "extensionsUsed": [
    "EXT_primitive_voxels",
    "EXT_structural_metadata"
  ],
  "extensionsRequired": [
    "EXT_primitive_voxels",
    "EXT_structural_metadata"
  ],
  "extensions": {
    "EXT_structural_metadata": {
      "schema": {
        "classes": {
          "voxel1": {
            "properties": {
              "a": {
                "type": "VEC4",
                "componentType": "FLOAT32"
              }
            }
          }
        }
      },
      "propertyAttributes": [
        {
          "class": "voxel1",
          "properties": {
            "a": {
              "attribute": "_DATA"
            }
          }
        }
      ]
    }
  },
  "scene": 0,
  "scenes": [
    {
      "nodes": [
        0
      ]
    }
  ],
  "nodes": [
    {
      "mesh": 0
    }
  ],
  "meshes": [
    {
      "primitives": [
        {
          "attributes": {
            "_DATA": 0
          },
          "mode": 2147483647,
          "extensions": {
            "EXT_primitive_voxels": {
              "shape": 0,
              "dimensions": [
                10,
                10,
                10
              ]
            },
            "EXT_structural_metadata": {
              "propertyAttributes": [0]
            }
          }
        }
      ]
    }
  ],
  "accessors": [
    {
      "bufferView": 0,
      "byteOffset": 0,
      "componentType": 5126,
      "count": 1000,
      "max": [
        1.0, 1.0, 1.0, 1.0
      ],
      "min": [
        0.0, 0.0, 0.0, 0.0
      ],
      "type": "VEC4"
    }
  ],
  "bufferViews": [
    {
      "buffer": 0,
      "byteOffset": 0,
      "byteLength": 16000
    }
  ],
  "buffers": [
    {
      "uri": "c.bin",
      "byteLength": 16000
    }
  ]
}
